<?xml version="1.0" encoding="UTF-8" standalone="no"?>
<!-- Created with Inkscape (http://www.inkscape.org/) -->

<svg
   width="99.999977mm"
   height="49.999996mm"
   viewBox="0 0 99.999976 49.999996"
   version="1.1"
   id="svg1"
   xmlns="http://www.w3.org/2000/svg"
   xmlns:svg="http://www.w3.org/2000/svg">
  <defs
     id="defs1">
    <rect
       x="162.15247"
       y="253.84581"
       width="110.03202"
       height="121.61434"
       id="rect1" />
    <rect
       x="162.15247"
       y="253.84581"
       width="110.03202"
       height="121.61434"
       id="rect1-7" />
  </defs>
  <g
     id="layer1"
     transform="translate(-47.752242,-76.328913)">
    <path
       d="m 54.175859,106.99441 9.108639,-0.0154 c 0,0 -2.883736,4.47047 -1.625388,6.24768 1.259166,1.77835 6.676211,0.88017 6.676211,0.88017 0.745282,-0.0332 1.409299,-0.11882 1.989592,-0.3566 0.580295,-0.26414 1.050066,-0.59432 1.409299,-0.99054 0.359235,-0.42263 0.718468,-1.00375 1.077701,-1.74333 L 88.189809,77.17962 h 11.523057 l -19.439986,43.029 c -0.525025,1.21506 -1.119144,2.2056 -1.782342,2.97162 -0.635563,0.73959 -1.436918,1.3075 -2.404095,1.70372 -0.939528,0.3962 -2.113926,0.59431 -3.523225,0.59431 H 48.566222 Z"
       id="text1"
       style="font-size:56px;font-family:'Star Trek TNG-Title';-inkscape-font-specification:'Star Trek TNG-Title, Normal';white-space:pre;fill:#3e7dc0;stroke:#3e7dc0;stroke-width:1.70128;stroke-linejoin:bevel"
       aria-label="J" />
    <path
       d="m 116.51071,125.47821 -3.73047,-14.02602 -10.44538,9.70729 q -2.48698,2.33767 -4.559479,3.3282 -2.0725,0.99053 -4.932539,0.99053 H 80.615143 l 5.015427,-11.37137 h 3.564684 q 1.948149,0 3.896298,-0.99055 1.989595,-0.99053 3.150183,-2.09992 L 109.38134,98.694063 103.61981,77.179558 h 12.3106 l 3.23309,12.282689 10.07233,-9.588416 q 1.20203,-1.149027 2.98438,-1.901834 1.82379,-0.792439 3.48179,-0.792439 h 11.27436 l -4.55948,10.143115 h -1.69946 q -1.07768,0 -2.52843,0.713192 -1.40929,0.713191 -2.56989,1.822587 l -12.9738,12.322308 6.17603,23.29745 z"
       id="text1-9"
       style="font-size:56px;font-family:'Star Trek TNG-Title';-inkscape-font-specification:'Star Trek TNG-Title, Normal';white-space:pre;fill:#3e7dc0;stroke:#3e7dc0;stroke-width:1.70129;stroke-linejoin:bevel"
       aria-label="X" />
  </g>
</svg>
