<?xml version="1.0" encoding="UTF-8" standalone="no"?>
<!-- Copyright (c) Juan-Pablo Scaletti [juanpablo@jpscaletti.com] -->

<svg
   width="224"
   height="100"
   viewBox="0 0 224 100"
   version="1.1"
   id="svg8"
   xml:space="preserve"
   xmlns="http://www.w3.org/2000/svg"
   xmlns:svg="http://www.w3.org/2000/svg"><defs
     id="defs8"><rect
       x="162.15247"
       y="253.84581"
       width="110.03202"
       height="121.61434"
       id="rect1-6" /><rect
       x="162.15247"
       y="253.84581"
       width="110.03202"
       height="121.61434"
       id="rect1-7" /><filter
       style="color-interpolation-filters:sRGB"
       id="filter21"
       x="-0.15847537"
       y="-0.2165617"
       width="1.3917434"
       height="1.5079844"><feGaussianBlur
         result="result0"
         in="SourceAlpha"
         stdDeviation="4"
         id="feGaussianBlur21" /><feOffset
         dx="5"
         dy="5"
         result="result4"
         id="feOffset21" /><feComposite
         in="SourceGraphic"
         in2="result4"
         operator="xor"
         result="result3"
         id="feComposite21" /></filter></defs><g
     id="g21"><g
       id="g1"
       transform="matrix(0.98015471,0,0,0.98001192,0.9923354,0.99936999)"><rect
         width="98.025002"
         height="98.039284"
         fill="#a9a9a9"
         opacity="0.8"
         x="0.987427"
         y="0.98039275"
         id="rect1"
         ry="7.6593189"
         style="fill:#000000;fill-opacity:1;stroke:#ffffff;stroke-width:4;stroke-dasharray:none;stroke-opacity:1"
         rx="7.6582036" /><rect
         x="53.063213"
         y="4.8100576"
         width="42.120121"
         height="90.379967"
         rx="3.9551015"
         ry="3.8296595"
         fill="#ffffff"
         id="rect12"
         style="fill:#666666;stroke-width:0.291502" /><rect
         x="19.457481"
         y="11.673156"
         width="75.725853"
         height="35.263157"
         fill="#ff7f6e"
         rx="0"
         ry="0"
         id="rect11"
         style="stroke-width:0.408528" /><rect
         x="19.457481"
         y="44.701946"
         width="75.725853"
         height="45.955914"
         fill="#ffd166"
         rx="0"
         ry="0"
         id="rect13"
         style="stroke-width:0.567652" /><rect
         x="49.234112"
         y="44.701946"
         width="45.949223"
         height="15.318639"
         fill="#cce6ff"
         rx="0"
         ry="0"
         id="rect16"
         style="stroke-width:0.30635" /><rect
         x="49.234112"
         y="60.020576"
         width="45.949223"
         height="15.318639"
         fill="#4dbd9c"
         rx="0"
         ry="0"
         id="rect17"
         style="stroke-width:0.279659" /><rect
         x="49.234112"
         y="29.383301"
         width="45.949223"
         height="15.318639"
         fill="#4a9af8"
         rx="0"
         ry="0"
         id="rect15"
         style="stroke-width:0.30635" /><rect
         x="4.8165293"
         y="4.8100576"
         width="38.291016"
         height="90.379967"
         rx="3.5955474"
         ry="3.8296595"
         fill="#ffffff"
         id="rect12-6"
         style="fill:#b3b3b3;stroke-width:0.277937" /><rect
         x="21.317808"
         y="14.695208"
         width="8.7382021"
         height="8.4731226"
         fill="none"
         stroke="#000000"
         stroke-width="0.860466"
         id="rect3"
         style="fill:#ffffff;fill-opacity:1" /></g><path
       d="m 157.14138,12.457278 v 47.034464 c 0,8.590293 -2.56188,15.413022 -7.6856,20.468226 -5.08862,5.055182 -12.30046,7.582772 -21.63547,7.582772 -4.70259,0 -8.77351,-0.60096 -12.21271,-1.8029 -3.40413,-1.23728 -6.68542,-2.93412 -9.84388,-5.09055 l 6.58013,-10.711329 c 2.49166,1.732194 4.82542,2.951787 7.00126,3.658819 2.17583,0.671672 4.64995,1.007513 7.42239,1.007513 3.75506,0 6.87843,-1.201923 9.3701,-3.60581 2.52677,-2.439206 3.79016,-6.204097 3.79016,-11.29463 V 25.183628 h -22.42509 v -12.72635 z"
       id="text21"
       style="font-weight:bold;font-size:192px;font-family:'Fira Code';-inkscape-font-specification:'Fira Code Bold';stroke:#ffffff;stroke-width:4;stroke-dasharray:none;stroke-opacity:1"
       aria-label="Jx" /><path
       d="m 179.61698,87.542738 h -18.00323 l 19.16133,-29.58876 -17.37153,-26.725323 h 18.63492 l 8.94899,18.028989 8.63313,-18.028989 h 17.6874 L 200.88398,57.317676 220.1506,87.542738 H 201.3051 L 190.25047,66.491241 Z"
       id="path21"
       style="font-weight:bold;font-size:192px;font-family:'Fira Code';-inkscape-font-specification:'Fira Code Bold';stroke:#ffffff;stroke-width:4;stroke-dasharray:none;stroke-opacity:1"
       aria-label="Jx" /></g></svg>
